<mxfile host="app.diagrams.net" modified="2021-06-08T15:41:24.903Z" agent="5.0 (X11; Linux x86_64) AppleWebKit/537.36 (KHTML, like Gecko) Chrome/91.0.4472.77 Safari/537.36" etag="QCL2GCs01w1QTgLIrezk" version="14.7.6" type="github">
  <diagram id="egPn57QBEm_u7m4vmbXl" name="Page-1">
    <mxGraphModel dx="1822" dy="1210" grid="1" gridSize="10" guides="1" tooltips="1" connect="1" arrows="1" fold="1" page="0" pageScale="1" pageWidth="827" pageHeight="1169" math="0" shadow="0">
      <root>
        <mxCell id="0" />
        <mxCell id="1" parent="0" />
        <mxCell id="N9gn4DI2TxKY2JzJV55s-10" style="edgeStyle=orthogonalEdgeStyle;rounded=0;orthogonalLoop=1;jettySize=auto;html=1;entryX=0;entryY=0.5;entryDx=0;entryDy=0;" edge="1" parent="1" source="N9gn4DI2TxKY2JzJV55s-1" target="N9gn4DI2TxKY2JzJV55s-6">
          <mxGeometry relative="1" as="geometry" />
        </mxCell>
        <mxCell id="N9gn4DI2TxKY2JzJV55s-1" value="Load Balancer&lt;br&gt;" style="rounded=1;whiteSpace=wrap;html=1;" vertex="1" parent="1">
          <mxGeometry x="-10" y="190" width="80" height="440" as="geometry" />
        </mxCell>
        <mxCell id="N9gn4DI2TxKY2JzJV55s-2" style="edgeStyle=orthogonalEdgeStyle;rounded=0;orthogonalLoop=1;jettySize=auto;html=1;entryX=0;entryY=0.386;entryDx=0;entryDy=0;entryPerimeter=0;" edge="1" source="N9gn4DI2TxKY2JzJV55s-3" target="N9gn4DI2TxKY2JzJV55s-1" parent="1">
          <mxGeometry relative="1" as="geometry" />
        </mxCell>
        <mxCell id="N9gn4DI2TxKY2JzJV55s-3" value="User A" style="shape=umlActor;verticalLabelPosition=bottom;verticalAlign=top;html=1;outlineConnect=0;" vertex="1" parent="1">
          <mxGeometry x="-170" y="220" width="30" height="60" as="geometry" />
        </mxCell>
        <mxCell id="N9gn4DI2TxKY2JzJV55s-4" style="edgeStyle=orthogonalEdgeStyle;rounded=0;orthogonalLoop=1;jettySize=auto;html=1;" edge="1" source="N9gn4DI2TxKY2JzJV55s-5" target="N9gn4DI2TxKY2JzJV55s-1" parent="1">
          <mxGeometry relative="1" as="geometry" />
        </mxCell>
        <mxCell id="N9gn4DI2TxKY2JzJV55s-5" value="User B" style="shape=umlActor;verticalLabelPosition=bottom;verticalAlign=top;html=1;outlineConnect=0;" vertex="1" parent="1">
          <mxGeometry x="-170" y="490" width="30" height="60" as="geometry" />
        </mxCell>
        <mxCell id="N9gn4DI2TxKY2JzJV55s-11" style="edgeStyle=orthogonalEdgeStyle;rounded=0;orthogonalLoop=1;jettySize=auto;html=1;entryX=0.5;entryY=1;entryDx=0;entryDy=0;" edge="1" parent="1" source="N9gn4DI2TxKY2JzJV55s-6" target="N9gn4DI2TxKY2JzJV55s-9">
          <mxGeometry relative="1" as="geometry" />
        </mxCell>
        <mxCell id="N9gn4DI2TxKY2JzJV55s-15" style="edgeStyle=orthogonalEdgeStyle;rounded=0;orthogonalLoop=1;jettySize=auto;html=1;" edge="1" parent="1" source="N9gn4DI2TxKY2JzJV55s-6" target="N9gn4DI2TxKY2JzJV55s-16">
          <mxGeometry relative="1" as="geometry">
            <mxPoint x="450" y="410" as="targetPoint" />
          </mxGeometry>
        </mxCell>
        <mxCell id="N9gn4DI2TxKY2JzJV55s-6" value="API Gateway" style="rhombus;whiteSpace=wrap;html=1;" vertex="1" parent="1">
          <mxGeometry x="210" y="350" width="150" height="120" as="geometry" />
        </mxCell>
        <mxCell id="N9gn4DI2TxKY2JzJV55s-12" style="edgeStyle=orthogonalEdgeStyle;rounded=0;orthogonalLoop=1;jettySize=auto;html=1;" edge="1" parent="1" source="N9gn4DI2TxKY2JzJV55s-9" target="N9gn4DI2TxKY2JzJV55s-13">
          <mxGeometry relative="1" as="geometry">
            <mxPoint x="280" y="80" as="targetPoint" />
          </mxGeometry>
        </mxCell>
        <mxCell id="N9gn4DI2TxKY2JzJV55s-9" value="IAM&lt;br&gt;Identity Acess Management&amp;nbsp;" style="rounded=1;whiteSpace=wrap;html=1;" vertex="1" parent="1">
          <mxGeometry x="220" y="160" width="120" height="90" as="geometry" />
        </mxCell>
        <mxCell id="N9gn4DI2TxKY2JzJV55s-13" value="DB" style="shape=cylinder3;whiteSpace=wrap;html=1;boundedLbl=1;backgroundOutline=1;size=15;" vertex="1" parent="1">
          <mxGeometry x="260" y="-40" width="60" height="80" as="geometry" />
        </mxCell>
        <mxCell id="N9gn4DI2TxKY2JzJV55s-14" style="edgeStyle=orthogonalEdgeStyle;rounded=0;orthogonalLoop=1;jettySize=auto;html=1;exitX=0;exitY=1;exitDx=0;exitDy=0;exitPerimeter=0;" edge="1" parent="1" source="N9gn4DI2TxKY2JzJV55s-3" target="N9gn4DI2TxKY2JzJV55s-3">
          <mxGeometry relative="1" as="geometry" />
        </mxCell>
        <mxCell id="N9gn4DI2TxKY2JzJV55s-21" style="edgeStyle=orthogonalEdgeStyle;rounded=0;orthogonalLoop=1;jettySize=auto;html=1;" edge="1" parent="1" source="N9gn4DI2TxKY2JzJV55s-16" target="N9gn4DI2TxKY2JzJV55s-18">
          <mxGeometry relative="1" as="geometry" />
        </mxCell>
        <mxCell id="N9gn4DI2TxKY2JzJV55s-22" style="edgeStyle=orthogonalEdgeStyle;rounded=0;orthogonalLoop=1;jettySize=auto;html=1;" edge="1" parent="1" source="N9gn4DI2TxKY2JzJV55s-16">
          <mxGeometry relative="1" as="geometry">
            <mxPoint x="520" y="280" as="targetPoint" />
          </mxGeometry>
        </mxCell>
        <mxCell id="N9gn4DI2TxKY2JzJV55s-23" style="edgeStyle=orthogonalEdgeStyle;rounded=0;orthogonalLoop=1;jettySize=auto;html=1;entryX=0.633;entryY=0.975;entryDx=0;entryDy=0;entryPerimeter=0;" edge="1" parent="1" source="N9gn4DI2TxKY2JzJV55s-16" target="N9gn4DI2TxKY2JzJV55s-20">
          <mxGeometry relative="1" as="geometry" />
        </mxCell>
        <mxCell id="N9gn4DI2TxKY2JzJV55s-35" style="edgeStyle=orthogonalEdgeStyle;rounded=0;orthogonalLoop=1;jettySize=auto;html=1;entryX=0.5;entryY=1;entryDx=0;entryDy=0;" edge="1" parent="1" source="N9gn4DI2TxKY2JzJV55s-16" target="N9gn4DI2TxKY2JzJV55s-6">
          <mxGeometry relative="1" as="geometry">
            <Array as="points">
              <mxPoint x="550" y="490" />
              <mxPoint x="285" y="490" />
            </Array>
          </mxGeometry>
        </mxCell>
        <mxCell id="N9gn4DI2TxKY2JzJV55s-16" value="Message Broker / Kafka" style="shape=process;whiteSpace=wrap;html=1;backgroundOutline=1;" vertex="1" parent="1">
          <mxGeometry x="400" y="370" width="580" height="60" as="geometry" />
        </mxCell>
        <mxCell id="N9gn4DI2TxKY2JzJV55s-34" style="edgeStyle=orthogonalEdgeStyle;rounded=0;orthogonalLoop=1;jettySize=auto;html=1;" edge="1" parent="1" source="N9gn4DI2TxKY2JzJV55s-17">
          <mxGeometry relative="1" as="geometry">
            <mxPoint x="430" y="360" as="targetPoint" />
          </mxGeometry>
        </mxCell>
        <mxCell id="N9gn4DI2TxKY2JzJV55s-17" value="" style="ellipse;whiteSpace=wrap;html=1;" vertex="1" parent="1">
          <mxGeometry x="460" y="200" width="120" height="80" as="geometry" />
        </mxCell>
        <mxCell id="N9gn4DI2TxKY2JzJV55s-18" value="" style="ellipse;whiteSpace=wrap;html=1;" vertex="1" parent="1">
          <mxGeometry x="650" y="190" width="120" height="80" as="geometry" />
        </mxCell>
        <mxCell id="N9gn4DI2TxKY2JzJV55s-19" value="" style="ellipse;whiteSpace=wrap;html=1;" vertex="1" parent="1">
          <mxGeometry x="820" y="190" width="120" height="80" as="geometry" />
        </mxCell>
        <mxCell id="N9gn4DI2TxKY2JzJV55s-20" value="" style="ellipse;whiteSpace=wrap;html=1;" vertex="1" parent="1">
          <mxGeometry x="820" y="190" width="120" height="80" as="geometry" />
        </mxCell>
        <mxCell id="N9gn4DI2TxKY2JzJV55s-25" value="Message Processing services" style="text;html=1;align=center;verticalAlign=middle;resizable=0;points=[];autosize=1;strokeColor=none;" vertex="1" parent="1">
          <mxGeometry x="595" y="220" width="190" height="20" as="geometry" />
        </mxCell>
        <mxCell id="N9gn4DI2TxKY2JzJV55s-29" value="Distributed cache {userId , Socket Id}" style="shape=process;whiteSpace=wrap;html=1;backgroundOutline=1;" vertex="1" parent="1">
          <mxGeometry x="40" y="60" width="460" height="60" as="geometry" />
        </mxCell>
      </root>
    </mxGraphModel>
  </diagram>
</mxfile>
